<svg width="32" height="32" viewBox="0 0 32 32" xmlns="http://www.w3.org/2000/svg">
  <!-- Background circle -->
  <circle cx="16" cy="16" r="16" fill="#1B9AAA"/>
  
  <!-- Simplified hand (white) -->
  <path d="M 10 18 Q 11 16, 13 16 L 18 16 Q 19 16, 19.5 16.5 L 21 18 Q 21.5 18.5, 21 19 L 19 21 Q 18.5 21.5, 18 21.5 L 13 21.5 Q 11 21.5, 10.5 20 Z" 
        fill="#FFFFFF" opacity="0.95"/>
  
  <!-- Fingers -->
  <ellipse cx="18.5" cy="15" rx="1.2" ry="1.8" fill="#FFFFFF" opacity="0.95"/>
  <ellipse cx="19.5" cy="14.5" rx="1" ry="1.6" fill="#FFFFFF" opacity="0.95"/>
  <ellipse cx="20.5" cy="15" rx="1" ry="1.5" fill="#FFFFFF" opacity="0.95"/>
  
  <!-- Arc from hand to plane -->
  <path d="M 10 18 Q 12 10, 20 11" 
        fill="none" 
        stroke="#FFFFFF" 
        stroke-width="1.2" 
        stroke-linecap="round"
        opacity="0.85"/>
  
  <!-- Simplified airplane (white) -->
  <g transform="translate(20, 8) scale(0.35)">
    <path d="M 0 15 L 25 10 L 30 12 L 25 17 L 0 15 Z" fill="#FFFFFF"/>
    <path d="M 10 10 L 5 0 L 15 8 Z" fill="#FFFFFF"/>
    <path d="M 10 20 L 5 30 L 15 22 Z" fill="#FFFFFF"/>
  </g>
</svg>
